<svg xmlns="http://www.w3.org/2000/svg" width="200" height="140" viewBox="0 0 200 140">
  <g id="icone-avulsa" transform="translate(-337 -628)">
    <g id="icone-avulsa-2" data-name="icone-avulsa" transform="translate(391.99 627.99)">
      <path id="Path_1" data-name="Path 1" d="M471.53.01a6.176,6.176,0,0,1,.709.875c.753.937,1.6,1.788,2.372,2.712a35.294,35.294,0,0,1,2.76,3.733,4.971,4.971,0,0,1,.594,1.083,6.643,6.643,0,0,1-1.73-.37A1.34,1.34,0,0,1,475.2,7.3a20.292,20.292,0,0,0-1.558-3.021,28.631,28.631,0,0,1-1.682-3.151A6.382,6.382,0,0,1,471.53.01Z" transform="translate(-437.138)" fill="#dd0403"/>
      <path id="Path_2" data-name="Path 2" d="M718.169,45.039a7.187,7.187,0,0,1,1.593-.266,4.856,4.856,0,0,1,1.769.508,17.723,17.723,0,0,0,2.324.944,29.174,29.174,0,0,0,3.485.572,5.074,5.074,0,0,1,2,.965,5.531,5.531,0,0,1,1.548,1.778c.031,1.4.007,2.809.017,4.214a3.263,3.263,0,0,0,.083,1.089,18.275,18.275,0,0,0,.8,2.053c.167.338.362.661.53,1a1.959,1.959,0,0,1-.125,1.956,4.639,4.639,0,0,1-1.667,1.169,14.508,14.508,0,0,1-3.245,1.237c.224-.577.658-1.038.912-1.6a6.886,6.886,0,0,0,.5-3.328,12.206,12.206,0,0,0-.49-3.166,4.665,4.665,0,0,0-1.616-2.131,3.773,3.773,0,0,0-1.939-.831.862.862,0,0,1-.523-.194,4.633,4.633,0,0,1-.475-.766,6.952,6.952,0,0,0-3.229-2.971,5.98,5.98,0,0,0-2.33-.267,23.286,23.286,0,0,0-2.354.128,4.791,4.791,0,0,1,1.61-1.766,1.961,1.961,0,0,1,.822-.327Z" transform="translate(-663.532 -41.497)" fill="#dd0403"/>
      <path id="Path_3" data-name="Path 3" d="M568.719,65.664a3.172,3.172,0,0,1,1.931-.366,2.264,2.264,0,0,1,1.617.609,4.442,4.442,0,0,1,.875,1.021,16.152,16.152,0,0,1-1.617,0,2.928,2.928,0,0,0-1.633.427,2.89,2.89,0,0,0-.661,1.709.9.9,0,0,1-.57.769.919.919,0,0,0-.617.684,7.962,7.962,0,0,0-.2,1.458,31.088,31.088,0,0,0,.109,5.1,15.519,15.519,0,0,0,.7,3.072c.085.3.284.552.362.855.082.28.405.417.433.726a5.887,5.887,0,0,1-.841-.711A2.981,2.981,0,0,1,567.9,79.6a36.4,36.4,0,0,1-.421-4.346,4.521,4.521,0,0,0-.974,1.017,12.572,12.572,0,0,1-.882,1.039,3.192,3.192,0,0,1-.621-.8,3.86,3.86,0,0,1-.268-1.488A3.683,3.683,0,0,1,564.9,73.5c.306-.727.693-1.418.982-2.153.275-.705.445-1.445.71-2.153a16.985,16.985,0,0,1,.9-2,3.807,3.807,0,0,1,1.229-1.534Z" transform="translate(-523.536 -60.515)" fill="#dd0403"/>
      <path id="Path_4" data-name="Path 4" d="M630.148,90.795c.532-.413,1.042-1,1.768-1.008a11,11,0,0,1,2.265.1,6.406,6.406,0,0,1,3.011,1.848,3.349,3.349,0,0,1,1.124,2.489,6.659,6.659,0,0,0-1.34-1.833,2.613,2.613,0,0,0-2-.241,13.123,13.123,0,0,1-2.4.545,7.039,7.039,0,0,0-4.623,1.521,8.887,8.887,0,0,0-3.194,5.384,9.04,9.04,0,0,1-.231.977,5.334,5.334,0,0,1,.157-3.081c.284-.917.793-1.748,1.039-2.678a7.5,7.5,0,0,0,.2-1.677c.034-.75.049-1.5.071-2.249a4.216,4.216,0,0,0,1.985.479A3.672,3.672,0,0,0,630.148,90.795Z" transform="translate(-578.825 -83.217)" fill="#dd0403"/>
      <path id="Path_5" data-name="Path 5" d="M349.753,116.687a9.794,9.794,0,0,1,3.644-.568,15.936,15.936,0,0,1,3.94.314c1.408.341,2.75.9,4.115,1.372a6.3,6.3,0,0,0-1.109,1.814,4.925,4.925,0,0,0-.228,2.458,29.407,29.407,0,0,0,1.119,3.3c-.845.19-1.7.357-2.546.522a13.943,13.943,0,0,1-3.9.26,1.354,1.354,0,0,1-.781-.308,8.791,8.791,0,0,1-1.673-1.679,5.384,5.384,0,0,0-1.314-1.151,5.452,5.452,0,0,0,.172,1.1,29.106,29.106,0,0,1,.718,3.868,2.516,2.516,0,0,1-.111,1.09c-.058.127-.2.286-.354.211a4.579,4.579,0,0,1-1.345-.983.959.959,0,0,0-.69-.34,23.442,23.442,0,0,0,1.073,4.4c.3.753.629,1.49.984,2.217a8.787,8.787,0,0,0,2.008,2.387c.4.341.812.656,1.207,1a9.181,9.181,0,0,1-2.083.131,5.564,5.564,0,0,1-1.831-.242,4.572,4.572,0,0,1-1.6-1.113A12.6,12.6,0,0,1,347.031,134c-.527-.921-1.035-1.854-1.495-2.811-.067-.167-.22-.369-.05-.526a10.41,10.41,0,0,0,1.266-1.648,3.5,3.5,0,0,0,.4-1.531c.017-1.824-.226-3.64-.233-5.464a8.9,8.9,0,0,1,.268-2.2,3.847,3.847,0,0,1,.67-1.669,5.191,5.191,0,0,1,1.9-1.464Z" transform="translate(-320.213 -107.64)" fill="#dd0403"/>
      <path id="Path_6" data-name="Path 6" d="M940.177,117.856a12.259,12.259,0,0,1,1.3-.616,17.707,17.707,0,0,1-1.31,1.474,11.649,11.649,0,0,1-1.929,1.714,5.386,5.386,0,0,1-1.859.926,4.117,4.117,0,0,1-.157-1.431c.03-.241.266-.362.461-.458C937.835,118.908,939.028,118.43,940.177,117.856Z" transform="translate(-867.931 -108.682)" fill="#dd0403"/>
      <path id="Path_7" data-name="Path 7" d="M689.4,143.716a5.855,5.855,0,0,1,.74-.266c.123.018.145.162.181.258a5.336,5.336,0,0,0,.889,1.76,9.543,9.543,0,0,0,2.074,2.237,11.634,11.634,0,0,1,2.2,2.094,2.582,2.582,0,0,1,.592,1.714,3.749,3.749,0,0,1-.66,1.571,4.7,4.7,0,0,1-.875,1.159c-.4.34-.816.655-1.237.965a7.936,7.936,0,0,1-1.327.841,6.069,6.069,0,0,1-1.909.962,6.419,6.419,0,0,1,.391-1.129,18.237,18.237,0,0,0,.785-2.876,6.9,6.9,0,0,0,.153-1.42c-.013-.443-.072-.882-.122-1.322a6.928,6.928,0,0,0-.408-1.9,5.494,5.494,0,0,0-1.21-1.908,5.669,5.669,0,0,0-2.56-1.238,9.085,9.085,0,0,0-4.745.483,7.113,7.113,0,0,1,1.6-.945,5.1,5.1,0,0,1,1.8-.409,14.816,14.816,0,0,0,3.648-.631Z" transform="translate(-632.595 -132.981)" fill="#dd0403"/>
      <path id="Path_8" data-name="Path 8" d="M645.7,184.555a5.014,5.014,0,0,1,3.571-1.049,3.553,3.553,0,0,1,1.387.3,5.377,5.377,0,0,1,1.6,1.395,2.854,2.854,0,0,1,.7,1.241,8.383,8.383,0,0,1,.049,1.525,3.363,3.363,0,0,1-.916,2.083,4.475,4.475,0,0,1-2.3,1.418,8.579,8.579,0,0,1-1.676.2,4.891,4.891,0,0,1-2.373-.949c.281.011.557.085.84.084a5.755,5.755,0,0,0,3.76-1.41,2.99,2.99,0,0,0,.85-1.7,2.663,2.663,0,0,0-.4-2.179c-.281-.363-.693-.8-1.2-.636.139.594.682,1.015.738,1.635a2.576,2.576,0,0,1-.548,1.314c-.12-.38-.116-.784-.235-1.164a5.814,5.814,0,0,0-.64-1.234,6.522,6.522,0,0,0-2.9-.241c-.279.047-.3.367-.315.593a2.953,2.953,0,0,0,.091.943.849.849,0,0,0,1.183.386,1.586,1.586,0,0,0,.76-1.07.477.477,0,0,0,.4.235,1.856,1.856,0,0,1,.543,1.584,3.711,3.711,0,0,1-1.189,1.514,2.16,2.16,0,0,1-1.409.314,2.283,2.283,0,0,1-1.864-.731,2.421,2.421,0,0,1-.377-1.784,6.112,6.112,0,0,1,1.875-2.617Z" transform="translate(-596.836 -170.096)" fill="#dd0403"/>
      <path id="Path_9" data-name="Path 9" d="M884.924,194.221a14.281,14.281,0,0,0,.459-2.721,8.592,8.592,0,0,1,.207,4.191,5.635,5.635,0,0,1-.677,1.732,4.482,4.482,0,0,1-.927,1.033,11.8,11.8,0,0,1-2.278,1.671c-.873.542-1.743,1.092-2.657,1.564a11.407,11.407,0,0,0-1.426.841,1.942,1.942,0,0,1-.176-.488c-.212-.965-.51-1.909-.778-2.86a29.332,29.332,0,0,0,3.971-1.241,9.344,9.344,0,0,0,2.749-1.613,4.9,4.9,0,0,0,1.533-2.109Z" transform="translate(-812.737 -177.527)" fill="#dd0403"/>
      <path id="Path_10" data-name="Path 10" d="M504.262,241.46a8.668,8.668,0,0,1,.911-1.08,5.058,5.058,0,0,1,.134.855,10.194,10.194,0,0,0,.36,2.041,1.832,1.832,0,0,1,.107.716,4.14,4.14,0,0,1-.561.322,9.269,9.269,0,0,0-2.641,2.381,11.146,11.146,0,0,0-1.834,3.063,16.126,16.126,0,0,0-.7,2.251,14.153,14.153,0,0,0-.2,2.489c-.02.947-.056,1.9.007,2.842.05.779.24,1.543.247,2.325a9.186,9.186,0,0,1-1.07-2.254,18.5,18.5,0,0,1-.481-3.281,11.474,11.474,0,0,1,.109-2.6,13.042,13.042,0,0,1,1.183-2.96c.364-.7.737-1.4,1.164-2.06.454-.723.815-1.5,1.262-2.227C502.889,243.311,503.568,242.379,504.262,241.46Z" transform="translate(-462.161 -222.843)" fill="#dd0403"/>
      <path id="Path_11" data-name="Path 11" d="M669.09,291.46c.316-.176.586-.421.911-.58.027.1.05.2.068.3.077.984.451,1.929.436,2.923-.034.19-.253.248-.4.332a6.569,6.569,0,0,1-3.706.54,4.44,4.44,0,0,1-2.479-1.613,16.4,16.4,0,0,1-1.412-1.8,9.647,9.647,0,0,0,.9.429,12.786,12.786,0,0,0,1.874.462,2.839,2.839,0,0,0,.758.055,7.816,7.816,0,0,0,3.05-1.048Z" transform="translate(-614.192 -269.661)" fill="#dd0403"/>
      <path id="Path_12" data-name="Path 12" d="M580.566,302.721q1.093-.718,2.2-1.411a18.757,18.757,0,0,1,.564,1.878,5.986,5.986,0,0,1,.02,1.823,8.4,8.4,0,0,1-.182,1.2,3.615,3.615,0,0,1-.829,1.337,2.349,2.349,0,0,1-1.578.784,6.251,6.251,0,0,1-2.488-.177c-1.08-.33-2.127-.755-3.2-1.121a6.6,6.6,0,0,0-2.422-.208,5.055,5.055,0,0,0-2.536,1.044c-1.258.847-2.467,1.763-3.7,2.64a3.179,3.179,0,0,0-1.032.941c-.237.491-.133,1.062-.322,1.568a2.262,2.262,0,0,1-.717.888c-.85.731-1.687,1.48-2.519,2.232a8.18,8.18,0,0,1-1,.867c.278-.621.644-1.2.933-1.814a33.282,33.282,0,0,1,1.617-3.2,13.9,13.9,0,0,1,2.837-3.219,10.753,10.753,0,0,1,2.435-1.576,19.776,19.776,0,0,1,4.509-1.366A18.121,18.121,0,0,0,580.566,302.721Z" transform="translate(-519.927 -279.33)" fill="#dd0403"/>
      <path id="Path_13" data-name="Path 13" d="M652.916,302.113c.463-.118.917-.27,1.385-.366.294-.071.572.085.863.107a6.2,6.2,0,0,1,2.2.544,8.05,8.05,0,0,1,1.434.9,1.282,1.282,0,0,1,.356.444,8.786,8.786,0,0,1-1.2-.093,6.778,6.778,0,0,0-1.835.028,1.475,1.475,0,0,0-1.173,1.064,3.2,3.2,0,0,0,.05,1.744c.341,1.068.773,2.109,1.013,3.208a3.189,3.189,0,0,1-.12,2.164,8.661,8.661,0,0,1-1.87,2,3.609,3.609,0,0,0-1.149,2.034c-.031,1.169.149,2.333.151,3.5a3.168,3.168,0,0,1-.481,1.581,1.164,1.164,0,0,1-1.08.681,11.634,11.634,0,0,0-3.219-.3,1.143,1.143,0,0,0-.863.525c-.224.4-.1.878-.239,1.3a3.054,3.054,0,0,1-1.684,1.877,1.652,1.652,0,0,1-1.369-.034,7.613,7.613,0,0,1-1.888-1.481,3.021,3.021,0,0,0-1.242-.809,5.932,5.932,0,0,0-1.451-.09,3.975,3.975,0,0,0-1.579.211,7.363,7.363,0,0,0-1.234.653,10.632,10.632,0,0,1-1.591,1.035,1.819,1.819,0,0,1-.993.211c-1.416-.056-2.812-.37-4.232-.364a4.253,4.253,0,0,0-2.409.568,2.306,2.306,0,0,0-.9,1.729c-.031.2.015.448-.19.566a3.909,3.909,0,0,1,.706-2.851,6.466,6.466,0,0,1,2.641-2.1,17.832,17.832,0,0,1,3.125-.957c1.445-.373,2.922-.6,4.39-.854,1.083-.178,2.166-.375,3.259-.485.181-.025.243-.236.235-.394-.01-.426-.255-.812-.229-1.244a2.739,2.739,0,0,1,.443-1.6,8.774,8.774,0,0,1,1.984-1.8c.2-.136.359-.333.564-.467a17.5,17.5,0,0,0,1.917-1.3,15.362,15.362,0,0,0,2.314-1.989,11.57,11.57,0,0,0,1.953-2.947c.268-.562.478-1.15.754-1.708a4.315,4.315,0,0,0,.427-1.188,1.467,1.467,0,0,0-.7.057,15.338,15.338,0,0,0-2.342.846c-1.192.588-2.33,1.28-3.48,1.945a2.431,2.431,0,0,1,.517-.824,14.253,14.253,0,0,1,2.047-1.9,25.914,25.914,0,0,1,3.454-2.293A11.111,11.111,0,0,1,652.916,302.113Z" transform="translate(-580.646 -279.718)" fill="#dd0403"/>
      <path id="Path_14" data-name="Path 14" d="M279.144,356.644a13,13,0,0,0,1.2-1.084,15.987,15.987,0,0,0,1.008,1.525,17.563,17.563,0,0,0,2.933,2.8,9.608,9.608,0,0,0,3.111,1.5,12.6,12.6,0,0,1,1.233.287,1.961,1.961,0,0,1-.836.192,14.437,14.437,0,0,1-2.341.086,11.532,11.532,0,0,1-4.247-1.24,4.7,4.7,0,0,0-1.251-.542,2.016,2.016,0,0,0,.441.856c.4.543.832,1.056,1.274,1.563a8.242,8.242,0,0,0,1.269,1.051,5.928,5.928,0,0,0,1.078.521,5.678,5.678,0,0,1,1.156.46c-.284.266-.677.357-.978.6a3.1,3.1,0,0,0,1.055.487,4.835,4.835,0,0,0,1.584.225,17.27,17.27,0,0,0,2.518-.042c.518-.133.97-.454,1.5-.568-.449.588-.884,1.187-1.364,1.751a5.254,5.254,0,0,1-.938.949,5.608,5.608,0,0,1-2.257,1.152,3.5,3.5,0,0,1-2.59-.582,17.11,17.11,0,0,1-2.5-2.262,36.459,36.459,0,0,1-2.7-3.564c-.691-1.01-1.463-1.963-2.1-3.007a17.26,17.26,0,0,1-.9-1.544,4.99,4.99,0,0,1,.833-.287,8.186,8.186,0,0,0,2.809-1.288Z" transform="translate(-255.402 -329.624)" fill="#dd0403"/>
      <path id="Path_15" data-name="Path 15" d="M582.409,416.356a17.952,17.952,0,0,0,2.707.031c.033.706.005,1.415.085,2.117.033.419.107.834.11,1.254a.266.266,0,0,1-.145.265,10.754,10.754,0,0,0-1.851,1.5,3.176,3.176,0,0,0-.986,1.7,15.727,15.727,0,0,0,.04,2.013c-.931.107-1.868.179-2.791.351-1.319.242-2.621.565-3.921.89a19.707,19.707,0,0,0-3.911,1.261,6.324,6.324,0,0,0-1.739,1.254c-.233.209-.5.524-.847.419a10.645,10.645,0,0,1-4-2.454,3.394,3.394,0,0,1-.241-.292,4.073,4.073,0,0,1,.884-.034,12.729,12.729,0,0,0,3.026-.218,6.113,6.113,0,0,0,2.007-.675,11.532,11.532,0,0,0,4.306-4.074c.683-1.218,1.219-2.51,1.891-3.733a3.51,3.51,0,0,1,.253-.385,5.832,5.832,0,0,1-.226,1.409,31.17,31.17,0,0,1-1.234,3.827,4.64,4.64,0,0,0-.307,1.045,2.723,2.723,0,0,0,.993-.517,23.8,23.8,0,0,0,2.979-2.555,12.438,12.438,0,0,0,2.129-2.678c.224-.4.391-.82.6-1.224A2.731,2.731,0,0,0,582.409,416.356Z" transform="translate(-523.718 -385.985)" fill="#dd0403"/>
      <path id="Path_16" data-name="Path 16" d="M241.373,505.115a6.887,6.887,0,0,1,.923-1.025c.5.677.8,1.477,1.253,2.185.423.645.862,1.282,1.229,1.962a13.848,13.848,0,0,1-1.882.834,5.511,5.511,0,0,1-1.83.211,52.744,52.744,0,0,1-5.649-.256,34.549,34.549,0,0,0-4.923.02,9.551,9.551,0,0,0-2.19.289c-.577.169-1.153.343-1.741.471a14.253,14.253,0,0,0-1.737.777,3.745,3.745,0,0,0-1.1.722c-.494.541-.93,1.131-1.381,1.707a2.289,2.289,0,0,1-.383.382,4.6,4.6,0,0,1,.438-1.212,6.931,6.931,0,0,1,2.129-2.62,26.135,26.135,0,0,1,2.826-1.263q1.415-.564,2.855-1.066a15.008,15.008,0,0,0,1.621-.645,1.042,1.042,0,0,1,.431-.1c.136.27.457.311.692.459a8.408,8.408,0,0,0,2.428,1.085,5.861,5.861,0,0,0,3.161-.726,9.45,9.45,0,0,0,2.83-2.2Z" transform="translate(-205.766 -467.324)" fill="#dd0403"/>
      <path id="Path_17" data-name="Path 17" d="M249.251,582.976a6.1,6.1,0,0,1,1.3-.656,27,27,0,0,1,2.489,2.167,36.2,36.2,0,0,0-2.674,3.614,28.518,28.518,0,0,0-3.041,7.007,35.377,35.377,0,0,0-1.606,12.271q.187,2.781.593,5.542a40.684,40.684,0,0,0,1.182,5.547c.454,1.5.94,2.994,1.426,4.486.817,2.464,1.614,4.937,2.519,7.37,1.173,3.076,2.3,6.169,3.448,9.253,1.068,2.9,2.3,5.735,3.388,8.63a2.932,2.932,0,0,0,.518,1.081.29.29,0,0,0,.113-.194c.168-1.373.4-2.737.648-4.1a28.627,28.627,0,0,1,1.3-4.552,37.723,37.723,0,0,1,3.367-6.918c.589-.952,1.3-1.821,1.934-2.739a3.418,3.418,0,0,0,.693-1.526,15.057,15.057,0,0,0,0-2.2,25.143,25.143,0,0,0-.9-4.247c-.437-1.591-.9-3.177-1.45-4.733a8.874,8.874,0,0,1-.5-1.638,7.957,7.957,0,0,1,.92,1.926c.672,1.782,1.39,3.553,1.9,5.389.249.678.509,1.353.726,2.042a14.084,14.084,0,0,0,.744,2.086c.579-.487,1.114-1.024,1.66-1.548a60.343,60.343,0,0,1,5.9-5.267c1.119-.794,2.3-1.493,3.469-2.216,1.213-.752,2.463-1.439,3.722-2.108a8.931,8.931,0,0,1,1.377-.648,10.285,10.285,0,0,1-1.291.955c-1.055.686-2.1,1.392-3.118,2.13a65.8,65.8,0,0,0-5.557,4.368c-1.17,1.038-2.364,2.053-3.468,3.163a37.863,37.863,0,0,0-4.555,5.661,4.118,4.118,0,0,0-.683,1.286,20.779,20.779,0,0,0,2.193-.718,22.233,22.233,0,0,1,7.373-.764,29.466,29.466,0,0,1,4.555.425,70.983,70.983,0,0,0-7.529.5,14.564,14.564,0,0,0-3.353.785,16.888,16.888,0,0,0-3.582,1.763,3.683,3.683,0,0,1-1.576.837.681.681,0,0,0,.166.292c-.139.423-.378.8-.538,1.218a38.651,38.651,0,0,0-1.251,3.844,39.583,39.583,0,0,0-1.48,8.4c-.128,1.9-.082,3.8-.1,5.694a3.768,3.768,0,0,0,.179.989,94.255,94.255,0,0,1,2.772,13.878c.174,1.944.356,3.889.4,5.841-.033.312.048.782-.309.93-.406.168-.825.3-1.235.463-1.494.547-2.963,1.159-4.412,1.816H258a18.329,18.329,0,0,0,.168-2.18c.059-2.311.058-4.622.052-6.934a44.431,44.431,0,0,0-.226-5.194c-.19-1.572-.464-3.132-.718-4.694-.257-1.52-.5-3.042-.825-4.55-.33-1.582-.635-3.17-1.034-4.737-.37-1.536-.828-3.049-1.247-4.573-.388-1.466-.79-2.926-1.23-4.376a20.042,20.042,0,0,0-1.333-3.707c-.219-.387-.454-.764-.675-1.149a17.41,17.41,0,0,0-2.123-2.828,31.42,31.42,0,0,0-5.531-4.979,24.124,24.124,0,0,0-6.872-3.143,26.789,26.789,0,0,0-4.378-.634,24.6,24.6,0,0,1-2.608-.327,4.905,4.905,0,0,1,.777-.126,27.015,27.015,0,0,1,5.325.078,16.083,16.083,0,0,1,4.535,1.032,4.54,4.54,0,0,0,1.414.421,19.751,19.751,0,0,0-1.539-1.972c-.964-1.153-1.98-2.261-2.92-3.434a92.589,92.589,0,0,1-5.44-7.53,51.158,51.158,0,0,1-3.084-5.311,22.2,22.2,0,0,1-1.259-3.324,15.769,15.769,0,0,1,.944,1.532,57.432,57.432,0,0,0,4.121,6.321c.839,1.08,1.684,2.156,2.517,3.24.982,1.24,2.029,2.426,3.1,3.586.979,1.066,1.938,2.15,2.911,3.221a47.922,47.922,0,0,0,5.865,5.214,9.838,9.838,0,0,0,1.291.914,11.563,11.563,0,0,0-.655-2c-.353-1-.68-2-1-3.011-.359-1.075-.609-2.181-.958-3.259-.434-1.44-.786-2.905-1.1-4.376-.237-1.083-.34-2.189-.474-3.288a52.974,52.974,0,0,1-.294-7.238c.026-1.116.157-2.226.288-3.334.178-1.463.333-2.933.648-4.375.636-2.979,1.3-5.953,2.1-8.894.339-1.292.742-2.566,1.087-3.856a8.556,8.556,0,0,1,.709-1.777,3.244,3.244,0,0,1,.922-1.326Z" transform="translate(-210.652 -539.85)" fill="#dd0403"/>
      <path id="Path_18" data-name="Path 18" d="M695.089,614.915a8.218,8.218,0,0,0,2.5-1.215,29.589,29.589,0,0,0,1.271,5.6,11.631,11.631,0,0,0,.818,1.742,9.228,9.228,0,0,0,1.4,1.886,7.122,7.122,0,0,0,2.3,1.479,9.764,9.764,0,0,1,3.452,2.3,7.042,7.042,0,0,1,1.346,2.943c-.365-.365-.629-.815-.992-1.181a7.45,7.45,0,0,0-3.466-2.144,11.79,11.79,0,0,1-4.841-2.446c-.874-.8-1.715-1.64-2.529-2.5-.716-.849-1.39-1.732-2.069-2.611-.653-.831-1.226-1.722-1.9-2.54a13.326,13.326,0,0,1-.976-1.428c.431.06.845.208,1.28.244a7.925,7.925,0,0,0,2.406-.129Z" transform="translate(-640.985 -568.941)" fill="#dd0403"/>
      <path id="Path_19" data-name="Path 19" d="M104.36,669.475a1.937,1.937,0,0,1,.135-.365,8,8,0,0,1,1.269.951c1.14.992,2.229,2.039,3.283,3.122a15.749,15.749,0,0,1,1.3,1.469c.1.113.133.3.281.363a7.2,7.2,0,0,0,.245-1.189,18.84,18.84,0,0,1,2.389,2.144c.518.577,1.053,1.14,1.536,1.747.233.276.311.656.585.9.127-.365.122-.765.281-1.119a5,5,0,0,1,.8,1.181,12.187,12.187,0,0,1,1.321,3.833,12.711,12.711,0,0,1,.131,2.2,3.284,3.284,0,0,0,.051.854c.211.007.353-.2.533-.289a16.46,16.46,0,0,1-.092,2.136,8.024,8.024,0,0,1-.741,2.481,9.813,9.813,0,0,1-2.069,2.871c-.551-.884-1.09-1.778-1.686-2.634a15.616,15.616,0,0,1-1.186-1.881.865.865,0,0,1-.139-.543c.123-.855.394-1.687.44-2.553.057-1.022.052-2.047.035-3.071a9.362,9.362,0,0,0-.194-2.084c-.031-.167-.2-.207-.344-.238a4.523,4.523,0,0,1,.127,1.012c-.058.734-.2,1.457-.317,2.183a10.579,10.579,0,0,1-.336,1.616c-.178.539-.312,1.091-.5,1.625-.349-.553-.7-1.1-1.018-1.674-.419-.833-.987-1.585-1.348-2.447a1.211,1.211,0,0,1-.058-.572c-.089-.058-.23-.083-.23-.215a11.929,11.929,0,0,1-.061-1.462c.006-1.218-.163-2.427-.219-3.641a1.078,1.078,0,0,0-.252-.475.879.879,0,0,0-.16.546,23.075,23.075,0,0,1-.312,3.613c-.485-.933-.969-1.87-1.544-2.751a1.442,1.442,0,0,0-.312-.349,7.471,7.471,0,0,0,.469,2.1c.136.392.206.8.324,1.2.324.791.591,1.6.846,2.419a1.061,1.061,0,0,1,.073.679c-1.142-.349-1.959-1.3-3.014-1.808a2.59,2.59,0,0,0,.642,1.1,6.579,6.579,0,0,0,1.531,1.405q.709.444,1.4.923a1.068,1.068,0,0,1,.5.592,30.33,30.33,0,0,1,1.393,4.228c-.481-.109-.975-.147-1.456-.252a.281.281,0,0,1-.234-.25c-.092.089-.2.218-.346.145a11.073,11.073,0,0,1-1.625-.8,12.283,12.283,0,0,1-1.471-.976c-.065.256.117.467.271.648a7.267,7.267,0,0,0,1.344,1.138,11.005,11.005,0,0,0,2.492,1.168,7.489,7.489,0,0,0,1.687.439c.27,0,.374.3.494.491a26.751,26.751,0,0,1,1.274,2.782,17.439,17.439,0,0,1-2.36.07,6.518,6.518,0,0,1-1.521-.153,17.079,17.079,0,0,1-4.352-1.927c-.3-.154-.465-.457-.731-.649a2.1,2.1,0,0,1-.446-.4l.257-.113c-.07-.063-.14-.124-.211-.184l.221-.077c-.043-.245-.279-.362-.462-.493a3.449,3.449,0,0,1-.8-.788,6.98,6.98,0,0,1-1.345-3.472,8.525,8.525,0,0,1,.058-1.664,1.114,1.114,0,0,1,.116-.475c.191-.1.416,0,.621,0,.088-.693.052-1.393.11-2.088a14.733,14.733,0,0,1,.5-2.544c.166-.615.289-1.244.51-1.843.238.148.469.308.72.435.2-.208.148-.515.14-.777a14.15,14.15,0,0,1,.123-2.776,45.207,45.207,0,0,1,.634-4.748Z" transform="translate(-93.434 -620.311)" fill="#dd0403"/>
      <path id="Path_20" data-name="Path 20" d="M623.847,844.19a9.446,9.446,0,0,1,1.464,1.278q2.371,2.362,4.67,4.8a14.41,14.41,0,0,0,1.236,1.3c.171-.333.088-.747.319-1.049a6.584,6.584,0,0,1,1.391,1.639,12.938,12.938,0,0,1,1.55,3.182c.1.32.2.642.321.96a6.9,6.9,0,0,0,.879-.726,4.6,4.6,0,0,1,.616,1.229,11.612,11.612,0,0,1,.606,2.442,22.482,22.482,0,0,1,.066,2.948,11.352,11.352,0,0,1-.774,4.479,2.982,2.982,0,0,1-.615,1.055,4.061,4.061,0,0,1-.433-1.1,4.684,4.684,0,0,1-.039-1.814c.09-.993.172-1.988.177-2.986a1.781,1.781,0,0,0-.107-.731,7.48,7.48,0,0,0-.634,1.372,7.222,7.222,0,0,1-.354.965,7.908,7.908,0,0,1-.659-1.38c-.361-.789-.812-1.533-1.189-2.314-.117-.268-.332-.516-.3-.825.009-.755.028-1.509.015-2.264a3.783,3.783,0,0,0-.141-1.122.725.725,0,0,0-.181.324,7.553,7.553,0,0,0-.316,1.559,8.654,8.654,0,0,1-.887-1.562,19.276,19.276,0,0,0-1.756-2.6,1.061,1.061,0,0,0-.5-.409,10.506,10.506,0,0,0,.489,1.995,5.206,5.206,0,0,0,.437,1.4c-.066.069-.137.185-.251.13a6.1,6.1,0,0,0-2.089-.3,5.573,5.573,0,0,0,1.593,1.015c.427.249,1.016.389,1.194.909.418,1.16.726,2.357,1.03,3.551a7.124,7.124,0,0,1,.227,1.338,6.216,6.216,0,0,1-1.232-.809c-.78-.584-1.552-1.181-2.348-1.743a4.825,4.825,0,0,0-.982-.583,2.172,2.172,0,0,0,.5.914,16.421,16.421,0,0,0,3.121,2.855,18.74,18.74,0,0,1,1.652,1.13,1.882,1.882,0,0,1,.463.973,27.373,27.373,0,0,1,.543,3.4,8.787,8.787,0,0,1-4.457-1.224,20.971,20.971,0,0,1-2.742-2.645,11.261,11.261,0,0,1-1.752-2.712,4.288,4.288,0,0,1-.477-1.428,4.738,4.738,0,0,0,.517.184c0-.376-.174-.724-.189-1.1a27.526,27.526,0,0,1,.062-4.539,6.542,6.542,0,0,1,.4-1.78c.312.163.51.522.879.571.174-.144.109-.405.134-.6-.007-1.663-.023-3.328-.124-4.989a15.019,15.019,0,0,0-.722-3.635,7.5,7.5,0,0,1-.3-.928Z" transform="translate(-577.74 -782.625)" fill="#dd0403"/>
      <path id="Path_21" data-name="Path 21" d="M902.876,923.583a16.35,16.35,0,0,1,2.848-.293,2.1,2.1,0,0,0-.488.946,6.056,6.056,0,0,1,1.274-.31,11.3,11.3,0,0,1,1.275.064c1.433.141,2.855.384,4.266.667a3.466,3.466,0,0,0-.72.912,12.9,12.9,0,0,0,1.344-.022,45.325,45.325,0,0,1,5.144.135c.679.056,1.353.171,2.035.177v.006a12.731,12.731,0,0,1-1.183,1.765c-.86,1.079-1.737,2.146-2.647,3.185a13.582,13.582,0,0,0-1.2,1.389c.259.079.528.123.782.221a4.334,4.334,0,0,1-.313.65,14.928,14.928,0,0,1-2.22,2.814,7.931,7.931,0,0,1-1.291,1.121,1.242,1.242,0,0,0-.343.338,4.7,4.7,0,0,0,.817.293,3.22,3.22,0,0,1-.938.644,8.879,8.879,0,0,1-1.222.591,14.81,14.81,0,0,1-2.548.751,17.485,17.485,0,0,1-2.35.386.7.7,0,0,0-.421.117c.042.3.349.461.517.69a11.565,11.565,0,0,1-1.963-.11,21.817,21.817,0,0,1-3.074-.606,6.141,6.141,0,0,1-1.419-.635,8.495,8.495,0,0,1-1.431-.954c.4-.257.83-.462,1.221-.733a23.018,23.018,0,0,0,1.929-1.353,18.467,18.467,0,0,0,1.419-1.186c1.948,0,3.9-.02,5.844-.039a9.735,9.735,0,0,0,1.808-.123c-.246-.334-.7-.31-1.068-.367a25.81,25.81,0,0,1-2.933-.325,6.54,6.54,0,0,1-1.687-.443c.4-.348.876-.6,1.293-.935.561-.438,1.094-.912,1.688-1.307.416-.269.734-.718,1.249-.8.6-.125,1.219-.168,1.829-.246,1.092-.123,2.183-.25,3.277-.356-.022-.1.026-.243-.091-.293a2.481,2.481,0,0,0-.914-.138c-.914-.015-1.827-.07-2.737-.155a12.952,12.952,0,0,0,1.044-.773c.2-.176.454-.265.637-.458.141-.156.364-.187.514-.329l-.135-.125a3.746,3.746,0,0,0-1,.214c-.916.266-1.763.709-2.646,1.061a11.474,11.474,0,0,1-1.588.582,6.542,6.542,0,0,1,.788-1.749c.219-.429.549-.785.774-1.208a1.5,1.5,0,0,0-1.214.621,4.939,4.939,0,0,0-1.067,1.576c-.124.31-.353.561-.5.86a1.514,1.514,0,0,1-.308.5,3.329,3.329,0,0,1-1,.459c-.648.263-1.283.556-1.917.851a13.23,13.23,0,0,1-1.614.692,15,15,0,0,1,.487-3.495c.152-.324.258-.669.421-.989.077-.123-.066-.419-.214-.272a3.355,3.355,0,0,0-.6.877,14.527,14.527,0,0,0-.863,1.964,22.024,22.024,0,0,0-.47,2.763c-.03.2-.207.319-.349.438-.472.362-.967.691-1.469,1.011a8.371,8.371,0,0,1-1.323.727,14.665,14.665,0,0,1,.472-6.4,16.726,16.726,0,0,1,1.628-3.37,2.153,2.153,0,0,0,.4.854c.171-.016.227-.194.312-.314a4.631,4.631,0,0,1,1-1.117,7.152,7.152,0,0,1,3.142-1.584Z" transform="translate(-830.45 -855.957)" fill="#dd0403"/>
      <path id="Path_22" data-name="Path 22" d="M14.321,1096.2a2.13,2.13,0,0,1,1-.107,20.752,20.752,0,0,1,3.222.323,22.311,22.311,0,0,1,3.973,1.292,4.619,4.619,0,0,1,1.143.687,23.913,23.913,0,0,1,2.739,2.581c-.737-.134-1.481-.236-2.212-.4a7.164,7.164,0,0,1-1.867-.91,11.458,11.458,0,0,0-4.371-1.7c-.155-.036-.26.1-.373.175a43.568,43.568,0,0,1,4.169,2.546c-1.079.077-2.155.189-3.226.346a7.359,7.359,0,0,1-2.042.209,7.426,7.426,0,0,1-1.664-.64,8.113,8.113,0,0,0-1.455-.486c-.174-.067-.2.135-.23.251A16.775,16.775,0,0,1,15.079,1102a13.871,13.871,0,0,0-3.264.307,6.459,6.459,0,0,0-1.364.417c-.129.072-.335.171-.244.352a2.3,2.3,0,0,0,.816.086,11.933,11.933,0,0,1,2.64.232c-.319.458-.648.91-.944,1.383a1.757,1.757,0,0,0-.324.792c.128.055.244-.051.351-.106a15.214,15.214,0,0,0,2.216-1.945c.106-.132.285-.093.433-.1a37.11,37.11,0,0,1,4.764.084c-.976.734-1.832,1.622-2.872,2.27-.265.183-.551.333-.829.5a1.282,1.282,0,0,0-.322.638,9.1,9.1,0,0,0,3.165-1.459c.757-.5,1.517-1,2.22-1.566a1.29,1.29,0,0,1,.944-.4,13.713,13.713,0,0,1,3.792,1.008,10.2,10.2,0,0,1-1.081,1.867,10.869,10.869,0,0,1-3.517,2.912,6.188,6.188,0,0,1-1.66.594c-.892.191-1.793.335-2.7.446a6.428,6.428,0,0,1-1.229.063c.134-.207.357-.354.447-.587.029-.162-.147-.228-.275-.242-.844-.088-1.7.01-2.539-.158a13.464,13.464,0,0,1-3.265-1.138c-.3-.15-.559-.369-.845-.541a1.2,1.2,0,0,1-.4-.38A1.609,1.609,0,0,0,10,1107c.12-.2-.173-.33-.308-.424a19.647,19.647,0,0,0-3.452-1.342,15.466,15.466,0,0,0-2.815-.5Q2.2,1104.6.96,1104.5a3.381,3.381,0,0,1-.95-.16c.558-.365,1.166-.643,1.75-.962,2.12-1.108,4.231-2.236,6.417-3.211a5.638,5.638,0,0,0,.954-.423c-.3-.477-.778-.794-1.085-1.261a3.99,3.99,0,0,1,1.339-.545,11.888,11.888,0,0,1,3.382-.486,10.25,10.25,0,0,1,2.6.422,1.221,1.221,0,0,0-.285-.679,5.147,5.147,0,0,1-.761-.995Z" transform="translate(0 -1016.152)" fill="#dd0403"/>
      <path id="Path_23" data-name="Path 23" d="M827.621,1182.21a21.977,21.977,0,0,1,3.59-.608l-.118.708a14.541,14.541,0,0,1,1.937.221,11.209,11.209,0,0,1,2.57.755c.5.227.985.466,1.466.723.636.323,1.208.756,1.861,1.049-.314.236-.782.219-1.012.581a8.874,8.874,0,0,0,1.124.479,30.831,30.831,0,0,1,3.354,1.827,5.6,5.6,0,0,1,1.758,1.336c-.378.134-.789.1-1.17.224a5.462,5.462,0,0,0,.9,1.179,21.477,21.477,0,0,0,2.955,2.745c-.984,0-1.967.055-2.944.152a8.033,8.033,0,0,0-1.465.241,3.053,3.053,0,0,0,.7.935c-.975.041-1.951.075-2.92.2-.6.068-1.193.232-1.789.351a4.352,4.352,0,0,0-1.328.4c.117.393.472.635.672.979a6.3,6.3,0,0,1-1.528.106c-1.215,0-2.43-.048-3.641-.13a9.359,9.359,0,0,1-1.97-.305c-.677-.191-1.311-.505-1.983-.709q.042.43.117.857a8.071,8.071,0,0,1-1.334-.885c-1.137-.9-2.247-1.832-3.313-2.813a13.68,13.68,0,0,1-1.413-1.429,3.576,3.576,0,0,1-.677-1.005,9.04,9.04,0,0,1,1.9-.5,22.6,22.6,0,0,0,2.977,2.557,9.955,9.955,0,0,0,3.138,1.4,4.191,4.191,0,0,0,.836.22c-.037-.2-.206-.307-.356-.414A17.635,17.635,0,0,1,827.4,1191a6.277,6.277,0,0,1-.977-1.418c.407-.038.816-.049,1.221-.109.773-.071,1.551-.059,2.327-.07a1.36,1.36,0,0,1,.925.2,14.192,14.192,0,0,0,1.66,1.188,5.49,5.49,0,0,0,.795.437c.337.111.627.326.967.432a8.2,8.2,0,0,0,1.649.469,2.879,2.879,0,0,0-.916-.844,16.392,16.392,0,0,1-2.441-1.877c1.016.051,2.034.1,3.046.2a20.885,20.885,0,0,0,2.489.066c.212-.022.085-.237-.039-.286a25.2,25.2,0,0,0-2.532-.957c.779-.187,1.568-.333,2.349-.518.128-.045.4-.082.332-.277a1.119,1.119,0,0,0-.473-.139,14.315,14.315,0,0,0-3.792.225,7.413,7.413,0,0,1-2.484-.335c-.84-.212-1.683-.414-2.511-.669a7.135,7.135,0,0,1,1.608-.8c.89-.352,1.792-.673,2.709-.948a1.531,1.531,0,0,0,.548-.261c.062-.057.126-.247-.02-.24a9.235,9.235,0,0,0-1.5.132,16.987,16.987,0,0,0-4.2,1.045,5.976,5.976,0,0,0-1.348.729,24.582,24.582,0,0,1-2.735.082,9.868,9.868,0,0,1-1.879-.111,7.83,7.83,0,0,1,1.093-1.355,15.958,15.958,0,0,1,1.255-1.222,9.241,9.241,0,0,1,1.87-1.04,8.678,8.678,0,0,1,1.229-.514Z" transform="translate(-762.071 -1095.432)" fill="#dd0403"/>
    </g>
    <rect id="Rectangle_24" data-name="Rectangle 24" width="200" height="140" transform="translate(337 628)" fill="none"/>
  </g>
</svg>
