<svg xmlns="http://www.w3.org/2000/svg" width="200" height="140" viewBox="0 0 200 140">
  <g id="icone-vaso" transform="translate(-337 -628)">
    <g id="icone-vaso-2" data-name="icone-vaso" transform="translate(316.67 635.428)">
      <path id="path4040" d="M122.969,70.222l-.016,17.438s9.245-13.993,21.489-16.616,27.735-6.746,31.983-10.869,5.372-8.87-.25-11.869c0,0-2.5,8.87-7,5.872s-2.5-8-1.624-9.37,8.62-5.5,14.867,3.248c7.617,10.663-4.747,16.866-9.745,18.865s-7,2.749-7,2.749,7.5-2.374,18.615,5.747,8.745,13.243,18.865,15.866S214.9,87.66,215.4,83.537c0,0-7.371,2.624-9.12-2.5s.75-9.12,6.871-9.37,9.37,9.245,5.5,17.116-9.745,13.868-19.739,12.368-18.24-5.5-23.862-13.868-6.372-13.493-13.618-14.117c0,0,8.745,6.746,7.246,16.241s-9.62,10.245-12.743,10.245-10.494-3.248-10.744-9.62,1.624-9.245,7.371-9.745,9.745,6.5,5.5,8.62-6.455-.154-7.246-1.249c-1.794-2.482-2.349-1.519-1.926,3.7.366,4.513,11.171,3.8,14.169.926s4-9.87-1.5-14.617-13.618-6.746-22.863,0S120.33,94.406,120.33,99.279c0-4.872-9.12-14.867-18.365-21.613s-17.366-4.747-22.863,0S74.6,89.41,77.6,92.283s13.8,3.587,14.169-.926c.423-5.215-.132-6.178-1.926-3.7-.792,1.1-3,3.373-7.246,1.249s-.25-9.12,5.5-8.62,7.621,3.373,7.371,9.745-7.621,9.62-10.744,9.62S73.48,98.9,71.981,89.409s7.246-16.241,7.246-16.241c-7.246.625-8,5.747-13.618,14.117S51.742,99.653,41.747,101.153s-15.866-4.5-19.739-12.368-.625-17.366,5.5-17.116,8.62,4.248,6.871,9.37-9.12,2.5-9.12,2.5c.5,4.123,2.124,10.369,12.243,7.746s7.746-7.746,18.865-15.866,18.613-5.75,18.613-5.75-2-.75-7-2.749-17.361-8.2-9.745-18.865c6.247-8.745,13.993-4.623,14.867-3.248s2.873,6.372-1.624,9.37-7-5.872-7-5.872c-5.622,3-4.5,7.746-.25,11.869s19.747,8.246,31.99,10.87S117.707,87.66,117.707,87.66l-.016-17.438m0,0c-14.242.5-24.1-13.545-25.346-24.289S85.6,29.691,85.6,29.691s4.5-4.5,9.245-2.5,3.5-.75,8,1,8.246,4,8.745,8.5c0,0,3.31-12.185,8.745-12.119s8.745,12.119,8.745,12.119c.5-4.5,4.248-6.746,8.745-8.5s3.248,1,8-1,9.245,2.5,9.245,2.5-5.5,5.5-6.746,16.241-11.1,24.789-25.345,24.289" fill="#dd0403" fill-rule="evenodd"/>
    </g>
    <rect id="Rectangle_26" data-name="Rectangle 26" width="200" height="140" transform="translate(337 628)" fill="none"/>
  </g>
</svg>
