<svg xmlns="http://www.w3.org/2000/svg" xmlns:xlink="http://www.w3.org/1999/xlink" width="40" height="40" viewBox="0 0 40 40">
  <defs>
    <clipPath id="clip-path">
      <rect id="Rectangle_10" data-name="Rectangle 10" width="40" height="40" transform="translate(230 2752)" fill="#707070"/>
    </clipPath>
  </defs>
  <g id="facebook" transform="translate(-230 -2752)" clip-path="url(#clip-path)">
    <path id="facebook-2" data-name="facebook" d="M15.345,39.5a.5.5,0,0,0,.5.5h7.181a.5.5,0,0,0,.5-.5V19.842h5.206a.5.5,0,0,0,.5-.462l.5-5.92a.5.5,0,0,0-.5-.546h-5.7v-4.2a1.783,1.783,0,0,1,1.783-1.784h4.013a.5.5,0,0,0,.5-.5V.5a.5.5,0,0,0-.5-.5H22.55a7.2,7.2,0,0,0-7.2,7.2v5.71h-3.6a.5.5,0,0,0-.5.5v5.922a.5.5,0,0,0,.5.5h3.591Z" transform="translate(229.461 2752)" fill="#dd0403" fill-rule="evenodd"/>
  </g>
</svg>
