<svg xmlns="http://www.w3.org/2000/svg" xmlns:xlink="http://www.w3.org/1999/xlink" width="40" height="40" viewBox="0 0 40 40">
  <defs>
    <clipPath id="clip-path">
      <rect id="Rectangle_11" data-name="Rectangle 11" width="40" height="40" transform="translate(290 2752)" fill="#707070"/>
    </clipPath>
  </defs>
  <g id="instagram" transform="translate(-290 -2752)" clip-path="url(#clip-path)">
    <path id="instagram-2" data-name="instagram" d="M36.226,27.951a8.275,8.275,0,0,1-8.275,8.275h-15.9a8.275,8.275,0,0,1-8.275-8.275v-15.9a8.275,8.275,0,0,1,8.275-8.275h15.9a8.275,8.275,0,0,1,8.275,8.275ZM40,12.047A12.048,12.048,0,0,0,27.951,0H12.05A12.048,12.048,0,0,0,0,12.05v15.9A12.05,12.05,0,0,0,12.049,40h15.9A12.05,12.05,0,0,0,40,27.95ZM20.068,26.585A6.328,6.328,0,1,1,26.4,20.257a6.327,6.327,0,0,1-6.327,6.327Zm0-16.2a9.875,9.875,0,1,0,9.875,9.875,9.875,9.875,0,0,0-9.875-9.875ZM30.523,7.364a2.351,2.351,0,1,0,2.352,2.352,2.351,2.351,0,0,0-2.352-2.352Z" transform="translate(290 2752)" fill="#dd0403"/>
  </g>
</svg>
